<svg width="55" height="312" viewBox="0 0 55 312" fill="none" xmlns="http://www.w3.org/2000/svg">
<path d="M43.5 300.568L43.5 311.32L0.619998 292.568L0.619998 278.872L43.5 259.992L43.5 271L34.028 275.032L34.028 296.472L43.5 300.568ZM16.044 288.728L25.388 292.76L25.388 278.744L16.044 282.776L9.388 285.4L9.388 286.104L16.044 288.728ZM43.5 248.856L43.5 257.752L0.619997 257.752L0.619996 248.152L19.948 248.152L19.948 247.64C14.572 246.552 10.796 242.648 10.796 235.032C10.796 225.432 17.26 220.056 27.5 220.056C37.612 220.056 44.14 225.496 44.14 235.48C44.14 242.904 40.94 247.128 34.604 248.28L34.604 248.856L43.5 248.856ZM27.692 248.152C33.26 248.152 35.372 244.888 35.372 238.808C35.372 232.6 33.324 229.784 27.5 229.784C21.612 229.784 19.564 232.6 19.564 238.744C19.564 244.952 21.612 248.152 27.18 248.152L27.692 248.152ZM44.14 198.977C44.14 209.921 37.612 217.281 27.5 217.281C17.26 217.281 10.796 209.921 10.796 198.977C10.796 188.033 17.26 180.673 27.5 180.673C37.612 180.673 44.14 188.033 44.14 198.977ZM35.628 198.977C35.628 192.513 33.132 190.209 27.5 190.209C21.868 190.209 19.244 192.513 19.244 198.977C19.244 205.505 21.868 207.745 27.5 207.745C33.132 207.745 35.628 205.505 35.628 198.977ZM44.14 163.504C44.14 172.528 38.572 176.816 31.404 176.816L11.436 176.816L11.436 167.216L28.204 167.216C33.388 167.216 35.564 165.04 35.564 158.96C35.564 152.688 33.132 150.448 27.692 150.448L11.436 150.448L11.436 140.848L43.5 140.848L43.5 149.808L33.708 149.808L33.708 150.32C39.084 151.152 44.14 155.056 44.14 163.504ZM43.5 113.348L43.5 121.284C43.5 128.772 39.98 133.316 31.916 133.316L19.372 133.316L19.372 138.372L11.436 138.372L11.436 133.316L5.22799 133.316L5.22799 123.716L11.436 123.716L11.436 113.348L19.372 113.348L19.372 123.716L30.828 123.716C34.028 123.716 34.86 122.5 34.86 119.108L34.86 113.348L43.5 113.348Z" fill="#0D0D0D"/>
<path d="M43.5 90.2775L43.5 99.8775L11.436 99.8775L11.436 90.9815L21.164 90.9815L21.164 90.4695C15.788 89.7015 10.796 86.5015 10.796 78.4375C10.796 71.0135 15.34 67.2375 21.292 66.5335L21.292 65.9575C15.852 65.1895 10.796 61.9255 10.796 53.6695C10.796 45.4135 16.236 41.3815 23.532 41.3815L43.5 41.3815L43.5 50.9815L26.732 50.9815C21.42 50.9815 19.436 52.8375 19.436 58.3415C19.436 64.1655 21.74 65.8295 27.308 65.8295L43.5 65.8295L43.5 75.4295L26.732 75.4295C21.42 75.4295 19.436 77.2855 19.436 82.7895C19.436 88.6135 21.74 90.2775 27.308 90.2775L43.5 90.2775ZM44.14 19.4785C44.14 30.1665 38.892 37.4625 27.5 37.4625C17.26 37.4625 10.796 30.2305 10.796 19.6705C10.796 9.1745 16.3 2.1985 26.348 2.1985C27.5 2.1985 28.332 2.3265 29.42 2.4545L29.42 28.5665C34.348 28.3105 36.46 26.0065 36.46 19.7985C36.46 14.1025 34.988 12.1185 32.236 12.1185L31.596 12.1185L31.596 2.5185L32.3 2.5185C39.276 2.5185 44.14 9.3025 44.14 19.4785ZM18.284 19.8625C18.284 25.5585 20.204 27.9905 24.364 28.4385L24.364 11.4145C20.14 11.6705 18.284 14.2305 18.284 19.8625Z" fill="#185ADB"/>
<path d="M51.5 102.437L51.5 0.662503L54.7 0.662503L54.7 102.437L51.5 102.437Z" fill="#185ADB"/>
</svg>
