<svg width="33" height="30" viewBox="0 0 33 30" fill="none" xmlns="http://www.w3.org/2000/svg">
<path d="M15.1635 6.96088C15.7766 7.80336 16.0831 8.80824 16.0831 9.98365C16.0831 11.1915 15.7766 12.166 15.1554 12.9009C14.8062 13.3089 14.2967 13.6865 13.6227 14.0255C14.6458 14.395 15.4173 14.9776 15.9431 15.7734C16.4627 16.5692 16.7246 17.5375 16.7246 18.6744C16.7246 19.8478 16.4262 20.9014 15.8294 21.8311C15.4518 22.4462 14.9767 22.968 14.4083 23.3882C13.7366 23.8855 12.9616 24.2255 12.1407 24.3829C11.2678 24.5616 10.3238 24.6489 9.30473 24.6489H0.260773V4.84961H9.96044C12.4087 4.88615 14.1404 5.58855 15.1635 6.96088ZM4.26204 8.28855V12.6573H9.14232C10.0112 12.6573 10.7197 12.4928 11.2658 12.166C11.8078 11.8391 12.0819 11.2585 12.0819 10.4282C12.0819 9.50253 11.7225 8.89554 11.0039 8.59712C10.3827 8.39208 9.59097 8.28855 8.63075 8.28855H4.26204ZM4.26204 15.9338V21.214H9.13623C10.0071 21.214 10.6872 21.0983 11.1704 20.8648C12.0514 20.4304 12.4899 19.6102 12.4899 18.3922C12.4899 17.3589 12.0656 16.6524 11.213 16.2667C10.7339 16.0536 10.064 15.9399 9.20323 15.9338H4.26204ZM28.8583 10.3064C29.8957 10.7632 30.7483 11.4859 31.4203 12.4725C32.0334 13.3434 32.4272 14.3524 32.6059 15.4993C32.7114 16.1693 32.752 17.1417 32.7358 18.4064H21.9216C21.9866 19.8741 22.4981 20.9054 23.4766 21.4941C24.0694 21.8616 24.7799 22.0463 25.6184 22.0463C26.4994 22.0463 27.2181 21.823 27.7702 21.3764C28.0747 21.1328 28.3407 20.7978 28.5701 20.3695H32.5328C32.4272 21.2363 31.9461 22.1194 31.0955 23.0167C29.7658 24.4377 27.9042 25.1503 25.5108 25.1503C23.5335 25.1503 21.7917 24.5514 20.2833 23.3496C18.7689 22.1499 18.0158 20.1949 18.0158 17.4888C18.0158 14.9512 18.6979 13.0044 20.06 11.6503C21.4263 10.3003 23.1924 9.62027 25.3666 9.62027C26.6618 9.61824 27.825 9.84764 28.8583 10.3064ZM23.0544 13.6134C22.5063 14.1717 22.1612 14.9269 22.019 15.879H28.7081C28.6371 14.8619 28.2899 14.0925 27.6748 13.5627C27.0516 13.0369 26.2863 12.775 25.3707 12.775C24.378 12.777 23.6025 13.0572 23.0544 13.6134ZM21.0162 8.23779H29.6176V5.77329H21.0162V8.23779Z" fill="#185ADB"/>
</svg>
