<svg width="22" height="18" viewBox="0 0 22 18" fill="none" xmlns="http://www.w3.org/2000/svg">
<path d="M17.0856 18C16.817 18 16.5596 17.8919 16.3715 17.7001L11.4742 12.7045C11.0688 12.2909 10.3978 12.3072 10.0129 12.74L5.63275 17.6646C5.44299 17.8779 5.17108 18 4.88555 18H1.45334C0.573854 18 0.122696 16.9464 0.72963 16.3099L7.10553 9.62342C7.47802 9.23279 7.47329 8.61706 7.09485 8.23219L0.672751 1.70113C0.050947 1.06878 0.498927 0 1.38578 0H4.91564C5.18356 0 5.44027 0.10751 5.62824 0.29843L10.5246 5.27178C10.9308 5.68433 11.6013 5.66684 11.9854 5.23367L16.3278 0.336542C16.5176 0.122508 16.79 0 17.076 0H20.5101C21.3891 0 21.8405 1.05276 21.2344 1.68948L14.8923 8.35183C14.5208 8.74213 14.5253 9.35664 14.9026 9.74141L21.3331 16.2999C21.9535 16.9327 21.5052 18 20.619 18H17.0856Z" fill="black"/>
</svg>
