<svg width="24" height="19" viewBox="0 0 24 19" fill="none" xmlns="http://www.w3.org/2000/svg">
<path d="M1.5 3.5H22.5C22.8978 3.5 23.2794 3.34196 23.5607 3.06066C23.842 2.77936 24 2.39782 24 2C24 1.60218 23.842 1.22064 23.5607 0.93934C23.2794 0.658035 22.8978 0.5 22.5 0.5H1.5C1.10218 0.5 0.720644 0.658035 0.43934 0.93934C0.158035 1.22064 0 1.60218 0 2C0 2.39782 0.158035 2.77936 0.43934 3.06066C0.720644 3.34196 1.10218 3.5 1.5 3.5Z" fill="#0A1931"/>
<path d="M22.5001 5.5H9.50012C9.1023 5.5 8.72077 5.65804 8.43946 5.93934C8.15816 6.22064 8.00012 6.60218 8.00012 7C8.00012 7.39782 8.15816 7.77936 8.43946 8.06066C8.72077 8.34196 9.1023 8.5 9.50012 8.5H22.5001C22.8979 8.5 23.2795 8.34196 23.5608 8.06066C23.8421 7.77936 24.0001 7.39782 24.0001 7C24.0001 6.60218 23.8421 6.22064 23.5608 5.93934C23.2795 5.65804 22.8979 5.5 22.5001 5.5Z" fill="#185ADB"/>
<path d="M22.5 10.5H1.5C1.10218 10.5 0.720644 10.658 0.43934 10.9393C0.158035 11.2206 0 11.6022 0 12C0 12.3978 0.158035 12.7794 0.43934 13.0607C0.720644 13.342 1.10218 13.5 1.5 13.5H22.5C22.8978 13.5 23.2794 13.342 23.5607 13.0607C23.842 12.7794 24 12.3978 24 12C24 11.6022 23.842 11.2206 23.5607 10.9393C23.2794 10.658 22.8978 10.5 22.5 10.5Z" fill="#0A1931"/>
<path d="M22.5001 15.5H9.50012C9.1023 15.5 8.72077 15.658 8.43946 15.9393C8.15816 16.2206 8.00012 16.6022 8.00012 17C8.00012 17.3978 8.15816 17.7794 8.43946 18.0607C8.72077 18.342 9.1023 18.5 9.50012 18.5H22.5001C22.8979 18.5 23.2795 18.342 23.5608 18.0607C23.8421 17.7794 24.0001 17.3978 24.0001 17C24.0001 16.6022 23.8421 16.2206 23.5608 15.9393C23.2795 15.658 22.8979 15.5 22.5001 15.5Z" fill="#185ADB"/>
</svg>
