<svg width="31" height="30" viewBox="0 0 31 30" fill="none" xmlns="http://www.w3.org/2000/svg">
<path d="M22.727 6.14888C22.4058 6.14888 22.0918 6.24413 21.8248 6.42258C21.5577 6.60103 21.3495 6.85467 21.2266 7.15143C21.1037 7.44819 21.0715 7.77473 21.1342 8.08977C21.1969 8.4048 21.3515 8.69418 21.5787 8.92131C21.8058 9.14844 22.0952 9.30311 22.4102 9.36578C22.7252 9.42844 23.0518 9.39628 23.3485 9.27336C23.6453 9.15044 23.8989 8.94228 24.0774 8.67521C24.2558 8.40813 24.3511 8.09414 24.3511 7.77293C24.3511 7.3422 24.18 6.92912 23.8754 6.62455C23.5709 6.31998 23.1578 6.14888 22.727 6.14888ZM28.9526 9.42405C28.9263 8.30115 28.716 7.19017 28.33 6.13534C27.9859 5.23282 27.4503 4.41558 26.7601 3.73986C26.0899 3.04616 25.2708 2.51394 24.3646 2.18348C23.3126 1.7858 22.2004 1.57068 21.0759 1.54739C19.6413 1.46619 19.1812 1.46619 15.5 1.46619C11.8188 1.46619 11.3587 1.46619 9.92408 1.54739C8.79963 1.57068 7.68741 1.7858 6.63537 2.18348C5.73088 2.51729 4.91243 3.04904 4.23989 3.73986C3.54619 4.41003 3.01397 5.22917 2.68351 6.13534C2.28583 7.18738 2.07071 8.2996 2.04742 9.42405C1.96622 10.8586 1.96622 11.3188 1.96622 15C1.96622 18.6812 1.96622 19.1413 2.04742 20.5759C2.07071 21.7003 2.28583 22.8126 2.68351 23.8646C3.01397 24.7708 3.54619 25.5899 4.23989 26.2601C4.91243 26.9509 5.73088 27.4827 6.63537 27.8165C7.68741 28.2141 8.79963 28.4293 9.92408 28.4526C11.3587 28.5338 11.8188 28.5338 15.5 28.5338C19.1812 28.5338 19.6413 28.5338 21.0759 28.4526C22.2004 28.4293 23.3126 28.2141 24.3646 27.8165C25.2708 27.486 26.0899 26.9538 26.7601 26.2601C27.4534 25.5869 27.9894 24.7689 28.33 23.8646C28.716 22.8098 28.9263 21.6988 28.9526 20.5759C28.9526 19.1413 29.0338 18.6812 29.0338 15C29.0338 11.3188 29.0338 10.8586 28.9526 9.42405ZM26.5165 20.4135C26.5066 21.2726 26.3511 22.1238 26.0564 22.9308C25.8403 23.5198 25.4932 24.0519 25.0413 24.4872C24.6023 24.9345 24.0713 25.2808 23.4849 25.5022C22.6779 25.7969 21.8267 25.9525 20.9677 25.9623C19.6143 26.03 19.1135 26.0435 15.5541 26.0435C11.9948 26.0435 11.494 26.0435 10.1406 25.9623C9.2486 25.979 8.36038 25.8417 7.51507 25.5563C6.95447 25.3236 6.44773 24.9781 6.02635 24.5413C5.57715 24.1065 5.23441 23.5739 5.02485 22.9849C4.69443 22.1663 4.51117 21.2958 4.4835 20.4135C4.4835 19.0601 4.4023 18.5594 4.4023 15C4.4023 11.4406 4.4023 10.9398 4.4835 9.58646C4.48957 8.70819 4.6499 7.83782 4.95718 7.01504C5.19544 6.44379 5.56115 5.93458 6.02635 5.52632C6.43753 5.06099 6.94569 4.69142 7.51507 4.44362C8.34002 4.14593 9.2095 3.99035 10.0865 3.98347C11.4399 3.98347 11.9406 3.90227 15.5 3.90227C19.0594 3.90227 19.5601 3.90227 20.9135 3.98347C21.7726 3.99332 22.6238 4.14892 23.4308 4.44362C24.0458 4.67187 24.5978 5.04296 25.0413 5.52632C25.4848 5.94205 25.8314 6.45032 26.0564 7.01504C26.3571 7.83916 26.5128 8.70917 26.5165 9.58646C26.5842 10.9398 26.5977 11.4406 26.5977 15C26.5977 18.5594 26.5842 19.0601 26.5165 20.4135ZM15.5 8.05714C14.1274 8.05982 12.7864 8.46928 11.6465 9.23379C10.5065 9.9983 9.61873 11.0836 9.09532 12.3524C8.57191 13.6213 8.43635 15.0168 8.70576 16.3627C8.97518 17.7086 9.63749 18.9444 10.609 19.9141C11.5805 20.8837 12.8176 21.5436 14.164 21.8104C15.5104 22.0772 16.9057 21.9389 18.1736 21.413C19.4414 20.8871 20.5249 19.9972 21.2872 18.8558C22.0495 17.7143 22.4564 16.3726 22.4564 15C22.4582 14.0866 22.2794 13.1819 21.9302 12.3378C21.5811 11.4938 21.0686 10.7271 20.4221 10.0819C19.7756 9.43663 19.0079 8.92557 18.1632 8.57809C17.3185 8.23062 16.4134 8.05357 15.5 8.05714ZM15.5 19.5067C14.6087 19.5067 13.7373 19.2424 12.9962 18.7472C12.2551 18.252 11.6774 17.5481 11.3363 16.7246C10.9952 15.9011 10.906 14.995 11.0798 14.1207C11.2537 13.2465 11.683 12.4435 12.3132 11.8132C12.9435 11.1829 13.7466 10.7537 14.6208 10.5798C15.495 10.4059 16.4012 10.4952 17.2247 10.8363C18.0482 11.1774 18.752 11.755 19.2472 12.4962C19.7424 13.2373 20.0068 14.1086 20.0068 15C20.0068 15.5918 19.8902 16.1778 19.6637 16.7246C19.4372 17.2714 19.1052 17.7682 18.6868 18.1867C18.2683 18.6052 17.7714 18.9372 17.2247 19.1637C16.6779 19.3902 16.0918 19.5067 15.5 19.5067Z" fill="#185ADB"/>
</svg>
