<svg width="31" height="30" viewBox="0 0 31 30" fill="none" xmlns="http://www.w3.org/2000/svg">
<path d="M1.92047 4.57537C1.92047 3.66091 2.22633 2.90649 2.83801 2.31212C3.44969 1.71772 4.2449 1.42053 5.2236 1.42053C6.18483 1.42053 6.96254 1.71314 7.55676 2.2984C8.16844 2.90193 8.4743 3.68834 8.4743 4.65767C8.4743 5.53554 8.1772 6.26708 7.58298 6.85234C6.97129 7.45588 6.16735 7.75764 5.17117 7.75764H5.14495C4.18372 7.75764 3.40601 7.45588 2.81179 6.85234C2.21757 6.24881 1.92047 5.48981 1.92047 4.57537ZM2.26127 28.5796V10.2541H8.08107V28.5796H2.26127ZM11.3055 28.5796H17.1253V18.3469C17.1253 17.7068 17.1953 17.213 17.3351 16.8655C17.5797 16.2437 17.9511 15.7179 18.4492 15.2881C18.9473 14.8583 19.5721 14.6434 20.3236 14.6434C22.281 14.6434 23.2597 16.0242 23.2597 18.7859V28.5796H29.0795V18.0726C29.0795 15.3658 28.4678 13.3129 27.2444 11.9138C26.0211 10.5147 24.4045 9.81515 22.3946 9.81515C20.1401 9.81515 18.3837 10.8302 17.1253 12.8603V12.9151H17.0991L17.1253 12.8603V10.2541H11.3055C11.3405 10.8393 11.358 12.6591 11.358 15.7133C11.358 18.7676 11.3405 23.0563 11.3055 28.5796Z" fill="#185ADB"/>
</svg>
