<svg width="140" height="17" viewBox="0 0 140 17" fill="none" xmlns="http://www.w3.org/2000/svg">
<path d="M15.6876 16H0.692449V12.7765L10.1002 3.48816V3.22551H0.907347V0.00203974H15.4965V3.22551L5.77837 12.5139V12.7765H15.6876V16ZM21.4557 16.2388C18.8769 16.2388 17.3248 15.0449 17.3248 13.0392C17.3248 11.2722 18.6381 10.1739 21.193 9.91122L26.3267 9.38592V8.93224C26.3267 7.3802 25.6342 6.95041 23.724 6.95041C21.9093 6.95041 21.1691 7.42796 21.1691 8.78898V8.88449H17.5636V8.81286C17.5636 5.85204 20.0469 3.79857 23.9867 3.79857C27.9742 3.79857 29.8606 5.85204 29.8606 8.98V16H26.5177V13.2541H26.3267C25.7775 15.1165 24.1061 16.2388 21.4557 16.2388ZM20.9304 12.8004C20.9304 13.4451 21.4318 13.7078 22.4824 13.7078C24.9179 13.7078 26.2312 13.1347 26.3267 11.4394L22.172 11.9169C21.3124 11.9886 20.9304 12.2273 20.9304 12.8004ZM35.7352 2.81959H32.1536V0.00203974H35.7352V2.81959ZM35.7352 16H32.1536V4.03735H35.7352V16ZM43.4361 16.2388C39.7112 16.2388 37.6577 13.8033 37.6577 10.0306C37.6577 6.2102 39.6873 3.79857 43.245 3.79857C46.0865 3.79857 47.543 5.20735 47.9489 7.21306H48.1638V0.00203974H51.7455V16H48.4026V12.681H48.2116C47.7579 15.0449 46.182 16.2388 43.4361 16.2388ZM41.2871 10.0306C41.2871 12.2035 42.3616 12.9676 44.6538 12.9676C46.9222 12.9676 48.1638 12.1796 48.1638 10.1022V9.91122C48.1638 7.83388 46.9461 7.0698 44.6538 7.0698C42.3616 7.0698 41.2871 7.83388 41.2871 10.0306ZM94.1518 16H86.4394V0.00203974H94.1518C99.2855 0.00203974 102.533 2.98673 102.533 8.00102C102.533 13.0153 99.2855 16 94.1518 16ZM94.1518 3.22551H90.021V12.7765H94.1518C97.3991 12.7765 98.7124 11.8453 98.7124 8.00102C98.7124 4.15673 97.3991 3.22551 94.1518 3.22551ZM110.916 16.2388C106.928 16.2388 104.206 14.2808 104.206 10.0306C104.206 6.2102 106.904 3.79857 110.844 3.79857C114.76 3.79857 117.362 5.85204 117.362 9.60082C117.362 10.0306 117.315 10.341 117.267 10.7469H107.525C107.62 12.5855 108.48 13.3735 110.796 13.3735C112.921 13.3735 113.661 12.8243 113.661 11.7976V11.5588H117.243V11.8214C117.243 14.4241 114.712 16.2388 110.916 16.2388ZM110.772 6.59224C108.647 6.59224 107.74 7.30857 107.573 8.86061H113.924C113.829 7.28469 112.873 6.59224 110.772 6.59224ZM128.265 16H123.848L118.404 4.03735H122.391L125.973 12.5139H126.212L129.817 4.03735H133.733L128.265 16Z" fill="#0A1931"/>
<path d="M66.0162 16.2388C60.8109 16.2388 58.1605 13.6122 58.1605 9.31429V0.00203974H61.7421V9.05163C61.7421 11.7737 62.7689 12.7527 66.0162 12.7527C69.2874 12.7527 70.2903 11.7737 70.2903 9.05163V0.00203974H73.8719V9.31429C73.8719 13.6122 71.2454 16.2388 66.0162 16.2388ZM79.7342 16H76.1526V0.00203974H79.7342V16ZM139.526 16H134.917V11.8214H139.526V16Z" fill="#185ADB"/>
</svg>
