<svg width="55" height="472" viewBox="0 0 55 472" fill="none" xmlns="http://www.w3.org/2000/svg">
<path d="M43 461.84L43 471.44L0.120029 471.44L0.120029 458.448L21.24 448.4L31.288 444.368L31.288 443.664L21.24 439.76L0.120028 430.032L0.120027 416.976L43 416.976L43 426.576L21.24 426.576L14.52 426.256L14.52 426.96L21.24 429.456L40.44 438.416L40.44 450.064L21.24 459.024L14.52 461.52L14.52 462.224L21.24 461.84L43 461.84ZM53.88 405.796L53.88 411.044L45.176 411.044L45.176 403.172C45.176 400.804 44.536 399.78 43.128 399.14L10.936 414.82L10.936 403.94L25.592 397.156L33.144 394.468L33.144 393.828L25.528 391.268L10.936 385.188L10.936 374.5L45.304 390.372C52.024 393.444 53.88 397.732 53.88 405.796Z" fill="#0A1931"/>
<path d="M43 326.027L43 362.315L0.120025 362.315L0.120023 326.027L8.76002 326.027L8.76002 352.715L17.144 352.715L17.144 326.987L25.72 326.987L25.72 352.715L34.36 352.715L34.36 326.027L43 326.027ZM43 312.922L43 324.506L27.32 311.706L26.808 311.706L10.936 324.506L10.936 312.794L21.752 304.282L21.752 303.77L10.936 295.514L10.936 283.93L26.616 296.73L27.192 296.73L43 283.93L43 295.642L32.248 304.154L32.248 304.666L43 312.922ZM53.88 272.027L53.88 281.627L10.936 281.627L10.936 272.731L19.704 272.731L19.704 272.091C13.56 270.939 10.296 266.843 10.296 259.291C10.296 249.435 16.824 243.931 27 243.931C37.176 243.931 43.64 249.307 43.64 258.971C43.64 266.395 39.992 270.491 34.36 271.579L34.36 272.027L53.88 272.027ZM27.448 272.027C32.952 272.027 34.872 268.699 34.872 262.683C34.872 256.539 32.824 253.659 27 253.659C21.112 253.659 19.128 256.539 19.128 262.619C19.128 268.827 21.24 272.027 26.936 272.027L27.448 272.027ZM43.64 222.916C43.64 233.604 38.392 240.9 27 240.9C16.76 240.9 10.296 233.668 10.296 223.108C10.296 212.612 15.8 205.636 25.848 205.636C27 205.636 27.832 205.764 28.92 205.892L28.92 232.004C33.848 231.748 35.96 229.444 35.96 223.236C35.96 217.54 34.488 215.556 31.736 215.556L31.096 215.556L31.096 205.956L31.8 205.956C38.776 205.956 43.64 212.74 43.64 222.916ZM17.784 223.3C17.784 228.996 19.704 231.428 23.864 231.876L23.864 214.852C19.64 215.108 17.784 217.668 17.784 223.3ZM43 191.965L43 201.565L10.936 201.565L10.936 192.669L19.448 192.669L19.448 192.093C14.264 191.197 10.296 187.805 10.296 181.341C10.296 174.173 15.224 171.229 21.496 171.229L26.808 171.229L26.808 180.829L23.48 180.829C19.96 180.829 18.424 182.237 18.424 186.141C18.424 190.429 20.408 191.965 24.44 191.965L43 191.965ZM7.67201 158.152L7.67201 167.752L0.120016 167.752L0.120016 158.152L7.67201 158.152ZM43 158.152L43 167.752L10.936 167.752L10.936 158.152L43 158.152ZM43.64 136.103C43.64 146.791 38.392 154.087 27 154.087C16.76 154.087 10.296 146.855 10.296 136.295C10.296 125.799 15.8 118.823 25.848 118.823C27 118.823 27.832 118.951 28.92 119.079L28.92 145.191C33.848 144.935 35.96 142.631 35.96 136.423C35.96 130.727 34.488 128.743 31.736 128.743L31.096 128.743L31.096 119.143L31.8 119.143C38.776 119.143 43.64 125.927 43.64 136.103ZM17.784 136.487C17.784 142.183 19.704 144.615 23.864 145.063L23.864 128.039C19.64 128.295 17.784 130.855 17.784 136.487ZM43 105.152L43 114.752L10.936 114.752L10.936 105.856L20.792 105.856L20.792 105.28C15.416 104.448 10.296 100.608 10.296 92.2245C10.296 83.4565 15.928 79.2965 23.032 79.2965L43 79.2965L43 88.8965L26.232 88.8965C21.112 88.8965 18.936 91.0085 18.936 96.8965C18.936 102.976 21.368 105.152 26.808 105.152L43 105.152ZM43.64 57.352C43.64 68.36 37.112 75.4 27 75.4C16.76 75.4 10.296 68.36 10.296 57.352C10.296 47.048 15.8 40.008 24.12 40.008L25.016 40.008L25.016 49.544L24.504 49.544C20.408 49.544 18.936 52.552 18.936 57.544C18.936 63.24 21.048 65.864 27 65.864C32.888 65.864 35 63.24 35 57.544C35 52.552 33.528 49.544 29.432 49.544L28.92 49.544L28.92 40.008L29.816 40.008C38.072 40.008 43.64 47.048 43.64 57.352ZM43.64 18.8535C43.64 29.5415 38.392 36.8375 27 36.8375C16.76 36.8375 10.296 29.6055 10.296 19.0455C10.296 8.5495 15.8 1.5735 25.848 1.5735C27 1.5735 27.832 1.7015 28.92 1.8295L28.92 27.9415C33.848 27.6855 35.96 25.3815 35.96 19.1735C35.96 13.4775 34.488 11.4935 31.736 11.4935L31.096 11.4935L31.096 1.8935L31.8 1.8935C38.776 1.8935 43.64 8.6775 43.64 18.8535ZM17.784 19.2375C17.784 24.9335 19.704 27.3655 23.864 27.8135L23.864 10.7895C19.64 11.0455 17.784 13.6055 17.784 19.2375Z" fill="#185ADB"/>
<path d="M51 364.875L51 0.0375031L54.2 0.037503L54.2 364.875L51 364.875Z" fill="#185ADB"/>
</svg>
